<svg version="1.1" id="Layer_1" xmlns="http://www.w3.org/2000/svg" x="0" y="0" viewBox="0 0 1497.6 290.9" xml:space="preserve">
  <defs/>
  <style>
    .st0{fill:#009fd9}
  </style>
  <g id="Layer_1_1_">
    <path d="M1215.2 121.9c.1 5.2-.7 8.8-3.4 10.8h-145.4c7.8-24.8 20.5-34.4 44.3-34.4 17.7 0 35.3-.2 53-.1 9.3.1 13.8-3.8 13.5-13.5-.3-11.9-.3-23.8-.1-35.8.2-8.2-3.2-12.3-11.7-12.2-30.4.1-60.9-.6-91.3.5-5.5.2-12.4 6-16 11.2-16.7 23.8-32.8 50.7-48.4 75.2-2.4 3.8-4.9 6.8-7.8 9.2H959c7.1-11.2 13.3-21.1 19.7-30.8 19.2-29.1 38.6-60.5 57.5-89.8 5.3-8.3 11.5-12.1 21.6-12.1 47.2.3 94.4.4 141.7-.2 12.1-.1 16.1 3.8 15.9 16-.8 35.4-.5 70.7-.2 106z"/>
    <path class="st0" d="M1215.2 169c.1-5.2-.7-8.8-3.4-10.8h-145.4c7.8 24.8 20.5 34.4 44.3 34.4 17.7 0 35.3.2 53 .1 9.3-.1 13.8 3.8 13.5 13.5-.3 11.9-.3 23.8-.1 35.8.2 8.2-3.2 12.3-11.7 12.2-30.4-.1-60.9.6-91.3-.5-5.5-.2-12.4-6-16-11.1-16.7-23.8-32.8-50.7-48.4-75.2-2.4-3.8-4.9-6.8-7.8-9.2H959c7.1 11.1 13.3 21.1 19.7 30.8 19.2 29.1 38.6 60.5 57.5 89.8 5.3 8.3 11.5 12.1 21.6 12 47.2-.3 94.4-.4 141.7.2 12.1.1 16.1-3.8 15.9-16-.8-35.4-.5-70.7-.2-106zM1241.4 121.9c-.1 5.2.7 8.8 3.4 10.8h145.4c-7.8-24.8-20.5-34.4-44.3-34.4-17.7 0-35.3-.2-53-.1-9.3.1-13.8-3.8-13.5-13.5.3-11.9.3-23.8.1-35.8-.2-8.2 3.2-12.3 11.7-12.2 30.4.1 60.9-.6 91.3.5 5.5.2 12.4 6 16 11.2 16.7 23.8 32.8 50.7 48.4 75.2 2.4 3.8 4.9 6.8 7.8 9.2h42.9c-7.1-11.2-13.3-21.1-19.7-30.8-19.2-29.1-38.6-60.5-57.5-89.8-5.3-8.3-11.5-12.1-21.6-12.1-47.2.3-94.4.4-141.7-.2-12.1-.1-16.1 3.8-15.9 16 .8 35.4.5 70.7.2 106z"/>
    <path d="M1241.4 169c-.1-5.2.7-8.8 3.4-10.8h145.4c-7.8 24.8-20.5 34.4-44.3 34.4-17.7 0-35.3.2-53 .1-9.3-.1-13.8 3.8-13.5 13.5.3 11.9.3 23.8.1 35.8-.2 8.2 3.2 12.3 11.7 12.2 30.4-.1 60.9.6 91.3-.5 5.5-.2 12.4-6 16-11.1 16.7-23.8 32.8-50.7 48.4-75.2 2.4-3.8 4.9-6.8 7.8-9.2h42.9c-7.1 11.1-13.3 21.1-19.7 30.8-19.2 29.1-38.6 60.5-57.5 89.8-5.3 8.3-11.5 12.1-21.6 12-47.2-.3-94.4-.4-141.7.2-12.1.1-16.1-3.8-15.9-16 .8-35.4.5-70.7.2-106z"/>
    <g>
      <path d="M710.4 166.3l-.1.3h-.1c.1-.1.1-.2.2-.3z"/>
      <path d="M710.4 166.3l-.1.3h-.1c.1-.1.1-.2.2-.3zM873.8 141.3v25.3H726l10-25.3zM623.7 162.9v3.3h.8v-8-1c-.5 1.7-.8 3.7-.8 5.7z"/>
      <path d="M720 115.6v26.6l-.9 2.1-.8 2.2-7.1 18-.3.9-.3.9-.1.2c-.1.1-.1.2-.2.3h-85.7v-8.5-1c.5-8.8 7.8-15.8 16.8-15.8h55.2v-26.2c0-9.7-2.9-17.5-8.9-23.8-6.2-6.5-14.3-9.7-24.8-9.7h-13.4c-9.2 0-16.6-7.4-16.6-16.6v-6h30c15.8 0 29.3 5 39.9 14.8 11.4 10.4 17.2 24.5 17.2 41.6zM788.1 7.1c-2.8-3-6.3-4.6-10.4-4.6-4.4 0-8 1.5-10.9 4.6-2.9 3-4.3 7-4.3 11.9s1.4 8.9 4.3 12.1c2.8 3.2 6.5 4.8 10.9 4.8 4.1 0 7.6-1.6 10.4-4.8 2.8-3.2 4.2-7.2 4.2-12.1 0-4.9-1.4-8.9-4.2-11.9zM873.8 126.5h-25.9l-.5-.4c-1.6-1.3-3-3-4.4-5.2-2.1-3.3-4.2-6.7-6.4-10.1-6-9.7-12.3-19.7-18.7-28.8-1.7-2.4-4.8-5-7-5.1-11-.4-22.2-.3-33-.3-4.8 0-9.5.1-14.3 0-1.6 0-2.7.3-3.4 1-.7.7-1 1.9-1 3.6.1 7.1.1 13 0 18.6-.1 1.9.3 3.3 1.1 4.1.8.8 2.2 1.2 4.2 1.2h27.4c13.2 0 20.3 5.6 24.6 19l.7 2.2H739l-.5-.3c-2.2-1.7-2.5-4.6-2.5-7v-1.5c.1-17.5.3-35.6 0-53.3-.1-3.8.6-6.2 2.2-7.8 1.6-1.6 4-2.3 7.7-2.3 21.8.2 45.2.3 73.4.1 5.7 0 9.4 2.1 12.6 7 4 6.1 8 12.5 12 18.8 5.8 9.2 11.9 18.7 17.8 27.7 2.7 4.1 5.3 8.2 8 12.5l4.1 6.3zM31.8 24.9c1.2 3.3 1.7 6.6 1.7 10.1v105.7l-12.1 24.8H10.3V9.3c4 .4 7.3 1.3 10 2.5 2.7 1.3 4.8 2.8 6.3 4.7 2.3 2.4 4.1 5.1 5.2 8.4zM204.5 53.1c-2.9 1.6-5.5 3.6-7.8 5.8-2.3 2.3-4.1 4.9-5.4 7.8-1.3 2.9-1.9 5.9-1.6 8.9v129.6c3.5-.3 6.7-1.2 9.6-2.8 2.9-1.6 5.4-3.6 7.5-6 2.1-2.4 3.8-5.1 5-8.1 1.2-2.9 1.8-5.9 1.8-8.9V50.1c-3.1.4-6.2 1.4-9.1 3zm8.6-45.8c-2.7-3-6.3-4.6-10.6-4.6s-7.9 1.5-10.6 4.6c-2.7 3-4.1 6.9-4.1 11.8 0 4.8 1.4 8.8 4.1 12 2.7 3.2 6.3 4.8 10.6 4.8s7.9-1.6 10.6-4.8c2.7-3.1 4.1-7.1 4.1-12s-1.3-8.8-4.1-11.8zM251.9 16.4c-1.8-2-4.2-3.6-7.2-4.6-3-1.1-6.6-1.8-10.8-2v131.4c0 3.9.6 7.3 1.7 10.1 1.2 2.8 2.7 5.4 4.6 7.6 1.8 2 4.2 3.6 7.2 4.6 3 1.1 6.6 1.8 10.8 2V35c0-7.7-2.1-13.9-6.3-18.6z"/>
      <g>
        <path class="st0" d="M483.8 53.4c-2.4 1.3-4.6 3-6.7 5.3-2 2.2-3.5 4.7-4.5 7.6-1.1 2.9-1.6 6.2-1.6 10v32.3c0 4.5-.7 8.6-2.1 12.3-1.4 3.6-3.2 6.9-5.5 10-2.8 3-5.9 5.4-9.5 7.2-3.7 1.8-7.4 2.7-11.2 2.7H337.4c-3.5 0-7-.9-10.6-2.6s-6.9-4.4-10.1-7.9c-2.8-3.3-4.7-6.7-5.8-10-1.1-3.3-1.6-7.3-1.6-12v-32c0-3.3-.6-6.5-1.8-9.6-1.2-3-2.8-5.7-4.9-8-1.7-1.9-4-3.6-7-5.1-3-1.5-6.4-2.6-10.2-3.3v58c0 7.8 1.4 15.3 4.3 22.5 2.8 7.2 6.9 13.5 12 19.1h-.2c4.5 5 9.9 8.8 16.1 11.6 6.3 2.8 12.9 4.1 20 4.1h136.6l11.7-24.8c0-.1.1-.1.1-.2 1.8-3.2 3.3-6.3 4.5-9.4.9-2.2 1.6-4.3 2.2-6.4 1.4-5 2.1-10.4 2.1-16.2V51.3c-4.9.1-8.6.8-11 2.1zM387.2 6.9c-2.8-2.9-6.3-4.3-10.4-4.3-4.4 0-8.1 1.4-11.2 4.3-3.1 2.9-4.6 6.8-4.6 11.7 0 4.9 1.5 8.9 4.6 12.1 3.1 3.2 6.8 4.8 11.2 4.8 4.1 0 7.6-1.6 10.4-4.8 2.9-3.2 4.3-7.2 4.3-12.1 0-5-1.5-8.9-4.3-11.7zm33.6 0c-2.9-2.9-6.5-4.3-10.9-4.3-4.1 0-7.5 1.4-10.3 4.3-2.8 2.9-4.2 6.8-4.2 11.7 0 4.9 1.4 8.9 4.2 12.1 2.8 3.2 6.2 4.8 10.3 4.8 4.3 0 8-1.6 10.9-4.8 2.9-3.2 4.4-7.2 4.4-12.1 0-5-1.5-8.9-4.4-11.7z"/>
      </g>
      <g>
        <path d="M159.2 90.8c-.2-1.3-.4-2.5-.6-3.7V87c-6.9-23.2-26.3-40-49.4-40.5-23.1.5-42.6 17.4-49.5 40.6v.1c-.2 1.2-.4 2.4-.6 3.7-3.1 17.6 2.1 31 7.2 39.2 3.8 6.2 7.1 9.5 7.1 9.5l1 1.2H51.1L39 165.5h84.1l6.1-7.5 2.2-2.6 13.4-15.9h-.3s3.7-3.3 7.4-9.5c5.2-8.2 10.4-21.6 7.3-39.2zm-22.9 13.6s0 .3-.2.9c-.4 1.8-1.1 3.7-1.8 5.4-2.8 6.5-9.2 17.2-23.5 29-.4.4-1 .5-1.5.5-.6 0-1.1-.2-1.6-.5-14.3-11.8-20.7-22.6-23.5-29-.8-1.7-1.4-3.5-1.9-5.4-.1-.6-.2-.9-.2-.9-.5-2.5-.6-5.1-.4-7.8 1.3-13.5 12.7-24 26.5-24.5h2c13.8.5 25.2 11.1 26.5 24.5.2 2.7 0 5.3-.4 7.8z"/>
      </g>
      <g>
        <path d="M622.9 90.8c-.2-1.3-.4-2.5-.6-3.7V87c-6.9-23.2-26.3-40-49.4-40.5-23.1.5-42.5 17.4-49.4 40.5v.1c-.2 1.2-.4 2.4-.6 3.7-3.1 17.6 2.1 31 7.1 39.2 3.8 6.2 7.4 9.5 7.4 9.5h-.4l1 1.2h-35.9l-11.7 24.8h96.4l6.3-7.6.3-.3 1.8-2.1 13.4-15.9h-.3s3.7-3.3 7.4-9.5c5-8.3 10.3-21.7 7.2-39.3zM600 104.4s0 .3-.2.9c-.4 1.8-1.1 3.7-1.9 5.4-2.8 6.5-9.2 17.2-23.5 29-.4.4-1 .5-1.5.5s-1.1-.2-1.5-.5c-14.4-11.8-20.8-22.6-23.5-29-.8-1.7-1.4-3.5-1.9-5.4-.2-.6-.2-.9-.2-.9-.5-2.5-.6-5.1-.4-7.8 1.3-13.5 12.7-24 26.5-24.5h2c13.8.5 25.2 11.1 26.5 24.5.2 2.7 0 5.3-.4 7.8z"/>
      </g>
    </g>
  </g>
  <path d="M36.8 243.2l-6-5.9-6 5.9 6 6zM72.3 273.6l5.4 5.4 5.3-5.4-5.4-5.3zM60.5 273.6l5.4 5.3 5.3-5.3-5.4-5.4zM230.4 223.8l-6-5.9-5.9 5.9 5.9 6zM272.7 228.7l-5.3-5.3-5.3 5.3 5.3 5.3zM284.5 228.8l-5.3-5.4-5.3 5.3 5.3 5.4z"/>
  <path d="M318.8 244.6c-.4-1.1-1-2.1-1.7-3.1-.7-.9-1.4-1.8-2.3-2.5-.9-.7-1.9-1.3-3-1.7-1.1-.4-2.3-.6-3.7-.6-1.5 0-2.8.3-3.9.9-1.1.6-2.1 1.4-3 2.3-.9.9-1.7 2-2.3 3.2-.7 1.2-1.3 2.4-1.9 3.6-.6 1.1-1.2 2.3-1.9 3.4s-1.4 2.2-2.3 3.1c-.9.9-1.9 1.7-3 2.2-1.1.6-2.4.9-4 .9-.9 0-1.6-.2-2.2-.6-.6-.4-1.2-1-1.6-1.6-.4-.6-.8-1.3-1-2.1-.2-.8-.4-1.5-.5-2.1-.1-1.1-.2-2.1-.2-2.9-.1-.8-.2-1.5-.2-2.2-.1-.7-.2-1.4-.4-2.1-.2-.7-.4-1.5-.6-2.4l-7.7 2.2c.5 1.9.9 3.4 1.2 4.5.3 1.2.4 2.1.4 2.8 0 1.1-.2 2-.7 2.9-.5.8-1.2 1.5-2.2 2-1 .5-2.4 1-4 1.2-1.7.3-3.7.4-6.1.4h-1.2c-.5 0-1.2 0-2-.1-.9-.1-1.8-.2-2.7-.5-.9-.2-1.8-.6-2.6-1.1-.8-.5-1.5-1.2-1.9-2.1.8-.4 1.5-.7 2.2-1.1.7-.4 1.5-.7 2.3-1.1l1.3-7.6c-1.4 0-2.9-.1-4.4-.4-1.5-.3-3.1-.6-4.6-1.1-1.5-.4-3-1-4.4-1.5-1.4-.6-2.8-1.1-4-1.7-1.2-.5-2.3-1-3.4-1.5s-2.2-.9-3.3-1.3c-1.1-.4-2.2-.7-3.2-1-1.1-.2-2.1-.4-3.2-.4-1.3 0-2.6.3-4 .9-1.4.6-2.7 1.3-4 2.3-1.3 1-2.5 2.1-3.6 3.3-1.1 1.3-2 2.6-2.8 3.9l6.2 3.4.3-.4c.2-.3.5-.7.8-1.1.3-.4.8-.9 1.2-1.4.5-.5 1-1 1.7-1.4.6-.4 1.3-.8 2-1.1.7-.3 1.4-.4 2.2-.4 1 0 2 .1 3 .4 1 .3 2.1.6 3.1 1s2 .8 3.1 1.3c1 .5 2 .9 3 1.4 1 .4 1.9.8 2.9 1.1.9.3 1.8.5 2.7.6-2.1 1-4.3 2.1-6.7 3.1-2.4 1-4.8 2-7.3 2.8-2.5.8-5.1 1.5-7.7 2-2.6.5-5.2.8-7.7.8h-11.1c1.6-2.2 2.5-4.7 2.7-7.5v-.6c0-1.7-.3-3.3-1-4.9-.8-1.7-1.8-3.1-3.2-4.4-1.3-1.2-2.9-2.2-4.7-2.9-1.8-.7-3.6-1.1-5.6-1.1-1.5 0-3 .2-4.5.5-1.5.4-2.9.9-4.3 1.5s-2.7 1.4-4 2.3c-1.3.9-2.5 1.9-3.7 2.9-1 1-1.9 2-2.8 3-.8 1-1.6 2-2.3 3-.7 1-1.3 1.9-1.8 2.8-.5.9-1 1.7-1.3 2.4-.2-.2-.4-.5-.6-.9-.2-.3-.3-.7-.4-1.1l-.3-1.2c-.1-.4-.1-.8-.1-1.2 0-.6 0-1.1.1-1.6s.1-.9.2-1.4c.1-.4.2-.9.4-1.3s.4-.9.6-1.4l-7.2-2.4c-.4 1.1-.8 2.2-1 3.4-.3 1.2-.6 2.3-.9 3.4-.3 1.1-.7 2.2-1.1 3.2-.4 1-1 1.9-1.7 2.7-.7.8-1.5 1.4-2.6 1.8-1 .4-2.3.7-3.8.7h-5.5c1.6-2.2 2.5-4.7 2.7-7.5v-.6c0-1.7-.3-3.3-1-4.9-.8-1.7-1.8-3.1-3.2-4.4-1.3-1.2-2.9-2.2-4.7-2.9-1.8-.7-3.6-1.1-5.6-1.1-1.5 0-3 .2-4.5.5-1.5.4-2.9.9-4.3 1.5s-2.7 1.4-4 2.3c-1.3.9-2.5 1.9-3.7 2.9-1 1-1.9 2-2.8 3-.8 1-1.6 2-2.3 3-.7 1-1.3 1.9-1.8 2.8s-1 1.7-1.3 2.4c-.2-.2-.4-.5-.6-.9-.2-.3-.3-.7-.4-1.1l-.3-1.2c-.1-.4-.1-.8-.1-1.2 0-.6 0-1.1.1-1.6s.1-.9.2-1.4c.1-.4.2-.9.4-1.3s.4-.9.6-1.4l-7.2-2.4c-.4 1.1-.8 2.2-1 3.4-.3 1.2-.6 2.3-.9 3.4-.3 1.1-.7 2.2-1.1 3.2-.4 1-1 1.9-1.7 2.7-.7.8-1.5 1.4-2.6 1.8-1 .4-2.3.7-3.8.7h-.2c-.9 0-1.6-.2-2.2-.6-.6-.4-1.2-1-1.6-1.6-.4-.6-.8-1.3-1-2.1-.2-.8-.4-1.5-.5-2.1-.1-1.1-.2-2.1-.2-2.9-.1-.8-.2-1.5-.2-2.2-.1-.7-.2-1.4-.4-2.1-.2-.7-.4-1.5-.6-2.4l-7.7 2.2c.5 1.9.9 3.4 1.2 4.5.3 1.2.4 2.1.4 2.8 0 1.1-.2 2-.7 2.9-.5.8-1.2 1.5-2.2 2-1 .5-2.4 1-4 1.2-1.7.3-3.7.4-6.1.4h-1c-.6 0-1.3 0-2-.1s-1.4-.4-2.1-.8c-.7-.5-1.5-1.2-2.2-2.2-.8-1-1.5-2.4-2.3-4.2-.6-1.4-1.1-2.6-1.5-3.5-.4-.9-.6-1.5-.7-1.6l-7.3 4.1s.2.3.4.8c.3.5.6 1.3 1 2.2.4.9.8 1.9 1.3 3.1.4 1.2.9 2.3 1.3 3.5.4 1.2.7 2.4 1 3.6.3 1.2.4 2.2.5 3.2v.5c0 1.1-.2 2.1-.5 3.1-.4 1.2-1 2.2-1.7 3.2s-1.6 1.9-2.7 2.7c-1 .8-2.2 1.5-3.5 2.1-1.3.6-2.6 1-4 1.3-1.4.3-2.8.4-4.3.4h-.3c-2 0-3.8-.4-5.6-1-1.8-.6-3.3-1.5-4.6-2.6-1.3-1.1-2.4-2.4-3.2-3.9-.8-1.5-1.2-3.2-1.2-5.1 0-1.6.2-3.1.5-4.6.4-1.5.8-3 1.3-4.3.5-1.3 1-2.5 1.6-3.5.6-1 1-1.8 1.4-2.3l-6.1-4.5c-1.9 2.9-3.4 6-4.4 9.2-1 3.2-1.5 6.5-1.5 9.8 0 3.2.5 6.1 1.5 8.7 1 2.6 2.5 4.7 4.3 6.5 1.9 1.8 4.1 3.2 6.7 4.1 2.6 1 5.5 1.4 8.7 1.4 3 0 5.8-.3 8.2-.9 2.4-.6 4.6-1.4 6.4-2.5 1.8-1.1 3.4-2.3 4.7-3.7 1.3-1.4 2.4-3 3.2-4.7.8-1.7 1.3-3.4 1.6-5 .3-1.7.4-3.2.4-4.7v-1.2c.7.4 1.5.7 2.4.9.9.2 1.8.3 2.9.3h6c1.7 0 3.4-.2 5.1-.4 1.6-.2 3.1-.6 4.5-1 1.3-.5 2.4-1.1 3-2 1 1 2.2 1.9 3.6 2.5 1.2.6 2.8.9 4.5.9h1.2c2.5 0 4.8-.4 6.7-1.1 2-.7 3.9-2 5.5-3.8.7.9 1.5 1.7 2.4 2.4.9.7 2 1.3 3.4 1.7 1.3.5 3 .8 4.9 1 2 .2 4.4.3 7.2.3 2 0 4-.1 6.2-.3 2.2-.2 4.4-.6 6.6-1.2.9.4 2.1.6 3.4.7 1.4.1 3.2.2 5.4.2H147.5c2.5 0 4.8-.4 6.7-1.1 2-.7 3.9-2 5.5-3.8.7.9 1.5 1.7 2.4 2.4.9.7 2 1.3 3.4 1.7 1.3.5 3 .8 4.9 1 2 .2 4.4.3 7.2.3 2 0 4-.1 6.2-.3 2.2-.2 4.4-.6 6.6-1.2.9.4 2.1.6 3.4.7 1.4.1 3.2.2 5.4.2h13.5c2.8 0 5.5-.2 8.2-.7 2.6-.5 5.1-1.1 7.5-1.8 2.4-.8 4.7-1.6 7-2.6 2.2-1 4.4-2 6.5-3 1.2 2.6 3.3 4.6 6.1 6s6.3 2.1 10.4 2.1h6c1.7 0 3.4-.2 5.1-.4 1.6-.2 3.1-.6 4.5-1 1.3-.5 2.4-1.1 3-2 1 1 2.2 1.9 3.6 2.5 1.2.6 2.8.9 4.5.9h1.2c2.2-.1 4.2-.5 5.9-1.3 1.9-.9 3.6-2.1 5.3-3.7.5.3 1 .7 1.5 1 .6.3 1.1.7 1.7 1 .6.3 1.1.6 1.7.9.5.3 1 .5 1.5.7 1 .4 2 .7 2.9.9 1 .2 1.9.3 2.8.3 1 0 2-.2 2.9-.5.9-.3 1.8-.8 2.6-1.3.8-.6 1.5-1.3 2.2-2.1.6-.8 1.1-1.7 1.5-2.7.4-.9.6-1.9.8-2.9.2-1 .3-2 .3-3.1s-.1-2.3-.3-3.5c0-.1-.4-1.3-.8-2.4zm-182.6 7.3c-.9 1-2.1 1.8-3.6 2.4-1.4.7-3 1.2-4.8 1.5-1.8.4-3.5.6-5.1.7-1.6.1-3.1.2-4.4.2h-1.7c-1.9 0-3.6-.2-5.1-.4.9-1.6 2-3.2 3.1-4.7s2.4-2.8 3.8-3.9c1.4-1.2 2.9-2.2 4.6-3 1.7-.8 3.5-1.4 5.5-1.7.4-.1.9-.1 1.3-.1.5 0 1 0 1.6.1 1 .2 2 .5 2.9 1 .9.5 1.7 1.1 2.3 1.8.6.7 1.1 1.6 1.2 2.5 0 1.5-.6 2.6-1.6 3.6zm60.3 0c-.9 1-2.1 1.8-3.6 2.4-1.4.7-3 1.2-4.8 1.5-1.8.4-3.5.6-5.1.7-1.6.1-3.1.2-4.4.2h-1.7c-1.9 0-3.6-.2-5.1-.4.9-1.6 2-3.2 3.1-4.7s2.4-2.8 3.8-3.9c1.4-1.2 2.9-2.2 4.6-3 1.7-.8 3.5-1.4 5.5-1.7.4-.1.9-.1 1.3-.1.5 0 1 0 1.6.1 1 .2 2 .5 2.9 1 .9.5 1.7 1.1 2.3 1.8.6.7 1.1 1.6 1.2 2.5 0 1.5-.6 2.6-1.6 3.6zm117.6.3c0 .5 0 1-.1 1.4-.1.5-.3.9-.5 1.3s-.4.7-.7.9c-.2.2-.5.3-.7.4-.3.1-.6.1-.9.1-.4 0-.9-.1-1.4-.2-.9-.2-1.8-.5-2.7-.8-.9-.4-1.8-.8-2.6-1.2s-1.5-.9-2.1-1.2c.8-1.6 1.5-2.9 2-3.9s1-1.9 1.4-2.5c.4-.6.7-1.1 1-1.3.3-.3.6-.4.9-.5.3-.1.6-.1.9-.1.6 0 1.2.1 1.7.4.8.4 1.4 1 2 1.7.6.7 1 1.6 1.3 2.5.3.9.5 1.9.5 2.8v.2zM383.5 274.5l5.9 6 6-6-6-6zM399 242.7c-.4-1.4-.9-2.8-1.4-4.1-.5-1.3-1-2.6-1.6-3.8l-7.2 3.6c.6 1.1 1.1 2.3 1.6 3.6.5 1.3 1 2.5 1.3 3.7.4 1.2.7 2.3.9 3.2.2 1 .3 1.7.3 2.3 0 1.1-.3 2.1-.8 2.7-.5.7-1.2 1.2-2 1.6-.8.4-1.8.6-2.8.7-1 .1-2 .2-3 .2H380c-.6 0-1.2 0-1.7-.1s-.9-.2-1.2-.4c-.4-.2-.7-.4-.9-.7-.3-.3-.5-.7-.7-1.1-.1-.1-.2-.4-.3-.8-.1-.4-.3-1.1-.5-2.1s-.4-2.3-.7-4-.5-3.9-.9-6.5c0-.1-.1-.5-.1-1.2s-.1-1.4-.2-2.2c-.1-.9-.2-1.8-.3-2.8-.1-1-.2-1.9-.3-2.8-.1-.9-.2-1.6-.2-2.3-.1-.6-.1-1-.1-1.2l-7.9 1.7.4 4.7c-1 .4-2.1.9-3.3 1.5-1.2.6-2.3 1.2-3.4 1.9s-2.2 1.5-3.2 2.4c-1 .9-1.9 1.8-2.7 2.8-.8 1-1.4 2.1-1.8 3.3-.5 1.2-.7 2.4-.7 3.7 0 1.2.2 2.3.6 3.2.4 1 .9 1.8 1.5 2.5.7.7 1.4 1.3 2.3 1.9.9.5 1.8.9 2.9 1.3 1 .3 2.1.6 3.2.7 1.1.1 2.2.2 3.3.2 1 0 2 0 3.1-.1 1-.1 2.2-.2 3.3-.4.7 1.2 1.5 2.2 2.2 2.8.8.6 1.6 1.1 2.5 1.4.9.3 1.8.5 2.8.5.8 0 1.6.1 2.5.1h4.9c2.4 0 4.5-.3 6.5-.8s3.7-1.3 5.1-2.4c1.4-1.1 2.5-2.4 3.3-4.1.8-1.7 1.2-3.7 1.2-6 0-1.4-.1-2.7-.4-4.1-.4-1.4-.7-2.8-1.1-4.2zm-34.3 9.3c-.7.1-1.3.1-2 .1s-1.5 0-2.3-.1c-.8-.1-1.6-.2-2.3-.4-.7-.2-1.3-.4-1.7-.7-.5-.3-.7-.7-.7-1.1 0-.5.2-1 .5-1.6.3-.5.7-1.1 1.3-1.6s1.1-1 1.8-1.6c.7-.5 1.4-1 2.1-1.4l2.1-1.2c.7-.4 1.3-.6 1.8-.9.1 1 .2 2 .4 2.9.1 1 .2 1.9.3 2.8.1.9.2 1.7.3 2.5.1.8.2 1.4.3 2-.6.2-1.2.2-1.9.3zM457.5 243.2l-6-5.9-5.9 5.9 5.9 6z"/>
  <path d="M473.7 259c-.3-1.5-.6-2.9-1-4.3s-.8-2.7-1.2-4c-.4-1.3-.8-2.4-1.2-3.4-.4-1-.7-1.8-1-2.4-.3-.6-.4-.9-.5-1l-7.3 4.1s.2.3.4.8c.3.5.6 1.3 1 2.2.4.9.8 1.9 1.3 3.1.4 1.2.9 2.3 1.3 3.5.4 1.2.7 2.4 1 3.6.3 1.2.4 2.2.5 3.2v.5c0 1.1-.2 2.1-.5 3.1-.4 1.2-1 2.2-1.7 3.2s-1.6 1.9-2.7 2.7c-1 .8-2.2 1.5-3.5 2.1-1.3.6-2.6 1-4 1.3-1.4.3-2.8.4-4.3.4h-.3c-2 0-3.8-.4-5.6-1-1.8-.6-3.3-1.5-4.6-2.6-1.3-1.1-2.4-2.4-3.2-3.9-.8-1.5-1.2-3.2-1.2-5.1 0-1.6.2-3.1.5-4.6.4-1.5.8-3 1.3-4.3.5-1.3 1-2.5 1.6-3.5.6-1 1-1.8 1.4-2.3l-6.1-4.5c-1.9 2.9-3.4 6-4.4 9.2-1 3.2-1.5 6.5-1.5 9.8 0 3.2.5 6.1 1.5 8.7 1 2.6 2.5 4.7 4.3 6.5 1.9 1.8 4.1 3.2 6.7 4.1 2.6 1 5.5 1.4 8.7 1.4 3 0 5.8-.3 8.2-.9 2.4-.6 4.6-1.4 6.4-2.5 1.8-1.1 3.4-2.3 4.7-3.7 1.3-1.4 2.4-3 3.2-4.7.8-1.7 1.3-3.3 1.6-5 .3-1.6.4-3.2.4-4.6v-1.3c.2-1.1.1-2.5-.2-3.9zM546.9 244.6c-.3-1.2-.7-2.4-1-3.5-.4-1.1-.7-2.1-1.1-3-.4-.9-.7-1.6-1-2.2l-.6-1.2-6.7 3.7c.4.7.8 1.6 1.2 2.7.5 1.1.9 2.3 1.4 3.5.4 1.2.8 2.5 1.1 3.8.3 1.3.5 2.5.5 3.7 0 1.5-.5 2.7-1.4 3.4-.9.7-2.1 1.1-3.6 1.1-.8 0-1.5-.2-2-.5s-1-.7-1.3-1.1c-.3-.5-.6-1-.7-1.5-.1-.5-.2-1-.2-1.5v-.5c.1-.9.2-1.7.3-2.6.1-.9.2-1.7.4-2.5.1-.8.2-1.5.4-2.2.1-.7.2-1.3.3-1.8l-7.3-1.4c-.1.9-.3 1.9-.5 3s-.5 2.2-.8 3.4c-.3 1.2-.7 2.3-1.2 3.4-.4 1.1-1 2.1-1.6 2.9-.6.9-1.3 1.6-2 2.1s-1.6.8-2.5.8c-.9 0-1.5-.3-1.9-.8-.4-.5-.6-1-.6-1.5s-.1-.9-.1-1.1c0-.7.1-1.4.2-2.2.2-1 .4-2 .7-3 .3-1 .6-2 .9-2.9s.6-1.6.7-2.2l-7.8-1.7c-.2.9-.5 1.9-.8 2.9-.3 1.1-.6 2.2-1 3.3-.4 1.1-.9 2.2-1.4 3.3-.5 1.1-1.1 2-1.8 2.8-.7.8-1.5 1.5-2.4 2-.9.5-1.9.7-3.1.7h-1.4c-.8 0-1.5-.1-2.1-.2-.6-.2-1.1-.4-1.5-.8-.4-.4-.7-.9-.8-1.5-.2-.6-.2-1.2-.2-2v-.5-1.9-1.9-2-2.2-3.3-3.5c0-1.8 0-3.7-.1-5.8-.1-2-.2-4.1-.3-6-.1-2-.3-3.8-.5-5.6-.2-1.7-.4-3.2-.6-4.4l-7.8 2.3c.2 1 .4 2.1.5 3.4.1 1.3.3 2.7.4 4.1.1 1.5.2 3 .3 4.6s.1 3.1.2 4.7c0 1.6.1 3.1.1 4.6v4.2c0 2.2 0 4.1-.1 5.6 0 1.5-.1 2.6-.1 3.3 0 4.3 1.1 7.5 3.3 9.6 2.2 2.1 5.4 3.2 9.6 3.2H498.7c1.4 0 2.6-.1 3.7-.4 1.1-.2 2-.6 2.8-1 .8-.4 1.5-.9 2-1.5.6-.5 1-1.1 1.4-1.7.5.7 1 1.3 1.5 1.9.6.6 1.2 1.1 1.8 1.6.7.4 1.4.8 2.2 1s1.7.4 2.6.4h.2c1.2 0 2.3-.2 3.2-.4.9-.3 1.8-.6 2.5-1s1.4-1 1.9-1.5c.6-.6 1.1-1.2 1.6-1.9.4.6.9 1.2 1.4 1.8.5.6 1.1 1.1 1.8 1.6s1.4.8 2.2 1.1c.8.3 1.7.4 2.7.4h.4c2.1 0 4-.3 5.6-.9 1.7-.6 3.1-1.4 4.3-2.5 1.2-1.1 2-2.4 2.6-4 .6-1.6.9-3.3.9-5.2 0-1.2-.1-2.5-.3-3.7-.2-1.2-.4-2.5-.8-3.7zM568.1 228.8c-.2-3.2-.6-6.3-1-9.4l-8 2.5c.5 5 1 11.7 1.3 20.1.1 2.4.2 4.9.2 7.5v2.7c-.1 3.7-.2 7.7-.4 11.9l8.2-1.2c.1-2.8.2-5.7.2-8.7v-8.1-7.5c-.2-3.4-.3-6.6-.5-9.8zM569.7 208.6c-.5.5-1 .8-1.5.9-.5.1-.9.2-1.2.2-.2 0-.5 0-.8-.1-.7-.1-1.5-.3-2.4-.7-.7-.3-1.4-.6-2.1-.8-.8-.2-1.6-.3-2.6-.3s-1.9.2-2.8.6c-.9.4-1.7 1-2.5 1.7-.7.7-1.4 1.6-1.9 2.5-.5 1-.9 2-1.1 3l4.9 1.5c.1-.2.2-.6.3-1.1.1-.5.2-.9.4-1.3s.4-.8.8-1.1c.3-.3.8-.5 1.3-.5h.2c.7 0 1.3.1 2 .2.7.2 1.3.4 2 .7.6.2 1.3.5 1.9.7.7.2 1.4.3 2.1.3h.2c.8 0 1.6-.2 2.4-.4.7-.3 1.4-.6 2.1-1 .6-.4 1.2-.8 1.7-1.3s1-.9 1.3-1.3c.4-.4.6-.8.9-1.1.2-.3.3-.5.3-.5l-4.3-2.7c-.5.8-1 1.4-1.6 1.9zM731.3 252.1c0-1.2-.1-2.5-.3-3.7-.2-1.3-.5-2.5-.8-3.7-.3-1.2-.7-2.4-1-3.5-.4-1.1-.7-2.1-1.1-3-.4-.9-.7-1.6-1-2.2l-.6-1.2-6.7 3.7c.4.7.8 1.6 1.2 2.7.5 1.1.9 2.3 1.4 3.5.4 1.2.8 2.5 1.1 3.8.3 1.3.5 2.5.5 3.7 0 1.5-.5 2.7-1.4 3.4-.9.7-2.1 1.1-3.6 1.1-.8 0-1.5-.2-2-.5s-1-.7-1.3-1.1c-.3-.5-.6-1-.7-1.5-.1-.5-.2-1-.2-1.5v-.5c.1-.9.2-1.7.3-2.6.1-.9.2-1.7.4-2.5.1-.8.2-1.5.4-2.2.1-.7.2-1.3.3-1.8l-7.3-1.4c-.1.9-.3 1.9-.5 3s-.5 2.2-.8 3.4c-.3 1.2-.7 2.3-1.2 3.4-.4 1.1-1 2.1-1.6 2.9-.6.9-1.3 1.6-2 2.1s-1.6.8-2.5.8c-.9 0-1.5-.3-1.9-.8-.4-.5-.6-1-.6-1.5s-.1-.9-.1-1.1c0-.7.1-1.4.2-2.2.2-1 .4-2 .7-3 .3-1 .6-2 .9-2.9.3-.9.6-1.6.7-2.2l-7.8-1.7c-.2.9-.5 1.9-.8 2.9-.3 1.1-.6 2.2-1 3.3-.4 1.1-.9 2.2-1.4 3.3-.5 1.1-1.1 2-1.8 2.8s-1.5 1.5-2.4 2c-.9.5-1.9.7-3.1.7H629l-1.1 7.8c1.4.3 2.8.5 4.2.7 1.4.2 2.8.6 4.3 1.1 1 .4 1.9.8 2.7 1.2.9.4 1.6.8 2.2 1.2.6.4 1.1.7 1.5 1 .4.3.5.5.5.7 0 .9-.4 1.7-1.1 2.3-.7.7-1.6 1.2-2.8 1.7-1.1.5-2.4.9-3.8 1.2-1.4.3-2.8.6-4.1.8-1.3.2-2.5.4-3.6.4-1.1.1-2 .1-2.5.1-1 0-2.1 0-3.4-.1-1.3-.1-2.7-.2-4-.5-1.4-.3-2.7-.7-3.9-1.3-1.2-.6-2.2-1.4-3.1-2.5-.6-.9-1.1-2-1.5-3.2-.4-1.2-.6-2.5-.6-4 0-1.2.1-2.5.2-3.9s.3-2.8.7-4.3c.3-1.5.8-3.2 1.3-5 .6-1.8 1.3-3.8 2.1-5.9l-6.4-3c-.9 2.1-1.6 4.1-2.2 6-.6 1.9-1.1 3.6-1.5 5.3-.4 1.7-.7 3.2-.9 4.7-.2 1.5-.4 3-.5 4.4-.1.7-.1 1.5-.1 2.2 0 2.7.4 5 1.3 7.1 1.1 2.7 2.7 4.9 4.8 6.7 2.1 1.8 4.7 3.1 7.8 4 3 .9 6.3 1.3 9.9 1.3 1.4 0 3-.1 4.7-.3 1.7-.2 3.5-.6 5.3-1 1.8-.5 3.5-1.1 5.2-1.9 1.7-.8 3.2-1.7 4.6-2.8 1.3-1.1 2.4-2.4 3.3-3.8.9-1.4 1.3-3.1 1.4-4.9 0-.7-.2-1.6-.5-2.6s-.8-2-1.7-3h34c1.4 0 2.6-.1 3.7-.4 1.1-.2 2-.6 2.8-1 .8-.4 1.5-.9 2-1.5.6-.5 1-1.1 1.4-1.7.5.7 1 1.3 1.5 1.9.6.6 1.2 1.1 1.8 1.6s1.4.8 2.2 1c.8.2 1.7.4 2.6.4h.2c1.2 0 2.3-.2 3.2-.4.9-.3 1.8-.6 2.5-1s1.4-1 1.9-1.5c.6-.6 1.1-1.2 1.6-1.9.4.6.9 1.2 1.4 1.8.5.6 1.1 1.1 1.8 1.6s1.4.8 2.2 1.1c.8.3 1.7.4 2.7.4h.4c2.1 0 4-.3 5.6-.9 1.7-.6 3.1-1.4 4.3-2.5 1.2-1.1 2-2.4 2.6-4s1.2-3.2 1.2-5.1zM773.7 228.7l-5.4-5.3-5.3 5.3 5.4 5.3zM785.5 228.8l-5.4-5.4-5.3 5.3 5.4 5.4zM836 244.6c-.3-1.2-.7-2.4-1-3.5-.4-1.1-.7-2.1-1.1-3-.4-.9-.7-1.6-1-2.2l-.6-1.2-6.7 3.7c.4.7.8 1.6 1.2 2.7.5 1.1.9 2.3 1.4 3.5.4 1.2.8 2.5 1.1 3.8.3 1.3.5 2.5.5 3.7 0 1.5-.5 2.7-1.4 3.4-.9.7-2.1 1.1-3.6 1.1-.8 0-1.5-.2-2-.5s-1-.7-1.3-1.1c-.3-.5-.6-1-.7-1.5-.1-.5-.2-1-.2-1.5v-.5c.1-.9.2-1.7.3-2.6.1-.9.2-1.7.4-2.5.1-.8.2-1.5.4-2.2.1-.7.2-1.3.3-1.8l-7.3-1.4c-.1.9-.3 1.9-.5 3s-.5 2.2-.8 3.4c-.3 1.2-.7 2.3-1.2 3.4-.4 1.1-1 2.1-1.6 2.9-.6.9-1.3 1.6-2 2.1s-1.6.8-2.5.8c-.9 0-1.5-.3-1.9-.8-.4-.5-.6-1-.6-1.5s-.1-.9-.1-1.1c0-.7.1-1.4.2-2.2.2-1 .4-2 .7-3 .3-1 .6-2 .9-2.9.3-.9.6-1.6.7-2.2l-7.8-1.7c-.2.9-.5 1.9-.8 2.9-.3 1.1-.6 2.2-1 3.3-.4 1.1-.9 2.2-1.4 3.3-.5 1.1-1.1 2-1.8 2.8-.7.8-1.5 1.5-2.4 2-.9.5-1.9.7-3.1.7h-.6c-.9 0-1.6-.2-2.2-.6-.6-.4-1.2-1-1.6-1.6-.4-.6-.8-1.3-1-2.1-.3-.8-.4-1.5-.5-2.1-.1-1.1-.2-2.1-.2-2.9-.1-.8-.2-1.5-.2-2.2-.1-.7-.2-1.4-.4-2.1-.2-.7-.4-1.5-.6-2.4l-7.7 2.2c.5 1.9.9 3.4 1.2 4.5.3 1.2.4 2.1.4 2.8 0 1.1-.2 2-.7 2.9-.5.8-1.2 1.5-2.2 2-1 .5-2.4 1-4 1.2s-3.7.4-6.1.4H760c-.9 0-1.7-.2-2.4-.5-.7-.4-1.4-1-2.1-1.9-.7-.9-1.3-2.2-2-3.8-.7-1.6-1.4-3.6-2.2-6l-7.5 3.1c.4 1.2.8 2.4 1.3 3.7.5 1.3.9 2.5 1.3 3.7.4 1.2.8 2.4 1 3.5.3 1.1.4 2.2.4 3.1 0 1.3-.2 2.6-.7 3.8-.5 1.2-1.2 2.5-2 3.7-.8 1.2-1.8 2.3-3 3.4s-2.4 2.1-3.7 3.1c-1.3 1-2.7 1.9-4.2 2.8-1.5.9-2.9 1.7-4.4 2.4l3.5 7.2c2.6-1.3 5.2-2.8 7.7-4.6 2.5-1.7 4.8-3.7 6.8-5.8 2-2.1 3.7-4.4 5-6.8 1.3-2.4 2.1-4.9 2.4-7.5 1 .6 1.9 1 2.7 1.1.7.1 1.3.2 1.8.2h5.9c1.7 0 3.4-.2 5.1-.4 1.6-.2 3.1-.6 4.5-1 1.3-.5 2.4-1.1 3-2 1 1 2.2 1.9 3.6 2.5 1.2.6 2.7.9 4.5.9H787.5c1.4 0 2.6-.1 3.7-.4 1.1-.2 2-.6 2.8-1 .8-.4 1.5-.9 2-1.5.6-.5 1-1.1 1.4-1.7.5.7 1 1.3 1.5 1.9.6.6 1.2 1.1 1.8 1.6s1.4.8 2.2 1c.8.2 1.7.4 2.6.4h.2c1.2 0 2.3-.2 3.2-.4.9-.3 1.8-.6 2.5-1s1.4-1 1.9-1.5c.6-.6 1.1-1.2 1.6-1.9.4.6.9 1.2 1.4 1.8.5.6 1.1 1.1 1.8 1.6s1.4.8 2.2 1.1c.8.3 1.7.4 2.7.4h.4c2.1 0 4-.3 5.6-.9 1.7-.6 3.1-1.4 4.3-2.5 1.2-1.1 2-2.4 2.6-4 .6-1.6.9-3.3.9-5.2 0-1.2-.1-2.5-.3-3.7 0-1.1-.2-2.4-.5-3.6zM873.4 249.1c-.5-2.1-1.3-4.1-2.5-6.1s-2.5-4-4.1-5.8c-1.6-1.9-3.3-3.6-5.1-5.3-1.9-1.6-3.7-3.1-5.7-4.4l-4.6 6.9c1 .6 2.1 1.4 3.2 2.3 1.2.9 2.3 1.9 3.4 3s2.2 2.2 3.3 3.4c1.1 1.2 2 2.3 2.8 3.5.8 1.2 1.5 2.3 1.9 3.3.5 1.1.7 2 .7 2.8v.1c0 .6-.2 1.1-.5 1.6-.3.4-.7.8-1.1 1.1-.5.3-1 .5-1.6.7-.6.2-1.2.3-1.7.3s-1.1.1-1.7.1h-1.3c-.9 0-1.9-.1-3-.4-1.2-.3-2.3-.6-3.5-1-1.2-.4-2.4-.9-3.5-1.4-1.1-.5-2.1-1-2.9-1.5l-3.3 7.6c1.1.7 2.3 1.3 3.5 1.9 1.3.6 2.6 1.1 3.9 1.6 1.4.5 2.8.8 4.2 1.1 1.4.3 2.8.4 4.2.4h1.1c2.1 0 4.1-.3 5.9-1 2.1-.7 3.8-1.8 5.1-3.2s2.2-2.8 2.6-4.3c.4-1.5.6-2.7.6-3.7.1-1.3 0-2.4-.3-3.6z"/>
</svg>
